<?xml version="1.0" encoding="UTF-8" standalone="no"?>
<!-- Created with Inkscape (http://www.inkscape.org/) -->

<svg
   version="1.1"
   id="svg48"
   width="1024"
   height="1024"
   viewBox="0 0 1024 1024"
   sodipodi:docname="garm.svg"
   xmlns:inkscape="http://www.inkscape.org/namespaces/inkscape"
   xmlns:sodipodi="http://sodipodi.sourceforge.net/DTD/sodipodi-0.dtd"
   xmlns="http://www.w3.org/2000/svg"
   xmlns:svg="http://www.w3.org/2000/svg">
  <defs
     id="defs52" />
  <sodipodi:namedview
     id="namedview50"
     pagecolor="#ffffff"
     bordercolor="#000000"
     borderopacity="0.25"
     inkscape:showpageshadow="2"
     inkscape:pageopacity="0.0"
     inkscape:pagecheckerboard="0"
     inkscape:deskcolor="#d1d1d1"
     showgrid="false" />
  <g
     inkscape:groupmode="layer"
     inkscape:label="Image"
     id="g54">
    <path
       style="fill:#0e273e;stroke:none;"
       d="m 501.98301,156 v 23 c -47.098,0 -99.253,-4.757 -123.11,46 -3.653,7.771 -6.519,16.386 -6.89,25 -23.809,0.2 -24,18.278 -24,37 0,7.678 -1.189,16.38 3.649,22.96 5.076,6.902 13.734,4.628 18.748,9.643 5.298,5.297 5.55,17.747 11.071,24.382 15.74,18.918 41.681,15.015 63.532,15.015 14.279,0 19,-0.45 19,15 -33.829,0 -80.629,-5.36 -91.522,37 -4.077,15.857 -1.478,34.704 -1.478,51 -33.99,0.094 -66.246,19.773 -81.741,50 -4.949,9.655 -4.548,24.269 -10.247,32.725 -3.077,4.566 -11.488,7.165 -16.012,10.314 -9.3,6.474 -17.215,15.003 -22.688,24.961 -26.078,47.45 2.11,107.753 56.688,115.572 31.725,4.545 66.931,0.428 99,0.428 h 198.00004 94 c 17.806,0 36.837,2.155 54,-3.344 50.651,-16.229 71.484,-80.779 35.999,-121.652 -8.279,-9.537 -20.878,-20.687 -33.999,-22.004 -3.569,-44.84 -44.565,-77 -88,-77 0,-19.24 3.479,-42.385 -1.746,-61 -11.714,-41.734 -57.403,-37 -91.254,-37 v -15 c 32.921,0 90.893,8.332 93,-40 7.193,-0.929 14.713,-2.615 19.03,-9.04 4.262,-6.344 2.97,-14.706 2.97,-21.96 0,-16.405 0.449,-39.513 -23,-37 -1.154,-8.94 -3.782,-17.761 -7.439,-26 -22.782,-51.326 -77.179,-46 -123.56104,-46 0,-5.496 -2,-15.861 1.028,-20.61 6.067,-9.515 16.996,-11.095 19.504,-24.39 1.169,-6.1925 0.5,-13.2274 -2.061,-19 -2.235,-5.0374 -6.018,-9.3807 -10.486,-12.5571 -15.227,-10.827102 -39.006,-5.736802 -47.07,11.5571 -7.113,15.256 -0.756,37.906 17.085,42 m 10,-39.6404 c 13.916,-2.4233 17.739,19.2614 3.999,22.2424 -14.621,3.172 -19.081,-19.6163 -3.999,-22.2424 m -71,84.9404 c 12.556,-1.809 26.318,-0.3 39,-0.3 h 77.00004 c 19.842,0 38.73,-1.228 55,12.326 26.897,22.407 22,55.329 22,86.674 0,14.086 1.766,32.364 -16,36.471 -15.833,3.66 -35.75,0.529 -52,0.529 H 457.98301 c -15.417,0 -43.036,5.307 -55.96,-4.055 -12.852,-9.309 -9.04,-29.155 -9.04,-42.945 0,-31.477 -2.19,-66.554 31,-83.19 5.161,-2.587 11.274,-4.685 17,-5.51 m 10,42.168 c -34.185,6.436 -24.868,59.859 9,53.915 35.326,-6.198 25.82,-60.471 -9,-53.915 m 115.00004,0 c -34.25904,6.461 -24.81504,60.129 9,53.912 35.27,-6.483 25.805,-60.477 -9,-53.912 m 68,231.532 c -2.827,0.654 -6.934,2.759 -9.79,1.647 -6.15,-2.395 -13,-16.529 -17.496,-21.647 -8.323,-9.472 -18.845,-17.278 -29.714,-23.576 C 520.42501,398.654 446.98001,414.78 409.98301,469 c -4.013,-0.929 -13.41,-2.219 -15.972,-5.589 -2.786,-3.662 -1.028,-13.003 -1.028,-17.411 0,-15.794 -3.535,-34.992 12,-44.867 13.648,-8.675 35.566,-5.133 51,-5.133 h 118.00004 c 16.255,0 39.344,-3.47 51.907,9.093 15.049,15.05 8.093,50.261 8.093,69.907 m -9,199 v -90 c 7.913,2.164 18.852,11.609 26.996,10.381 5.812,-0.876 7.514,-6.819 4.856,-11.381 -8.055,-13.826 -20.462,-26.493 -30.452,-39 -2.726,-3.412 -7.222,-11.389 -12.399,-10.824 -5.085,0.555 -9.323,8.213 -12.2,11.824 -9.241,11.598 -18.694,23.114 -27.562,35 -3.288,4.407 -6.383,11.541 0.805,14.242 7.937,2.983 20.349,-8.051 27.956,-10.242 v 90 H 523.98301 V 626 523 c 8.063,1.437 19.899,12.212 27.985,9.381 7.96604,-2.789 4.39904,-9.697 0.885,-14.381 -8.659,-11.54 -17.903,-22.695 -26.867,-34 -2.919,-3.682 -7.402,-12.22 -13.003,-11.685 -5.225,0.499 -9.452,8 -12.4,11.685 -9.496,11.87 -19.764,23.505 -28.426,36 -3.105,4.478 -3.921,11.277 2.841,13.073 7.677,2.037 19.633,-7.955 26.985,-10.073 0,32.653 1.278,65.41 0.88,98 -0.204,16.638 -3.751,36.742 0.12,53 h -80 v -90 c 7.73,2.211 19.026,11.81 26.996,10.577 5.055,-0.782 7.572,-6.222 5.337,-10.577 -7.197,-14.019 -20.556,-26.673 -30.33,-39 -3.004,-3.788 -7.251,-11.867 -13.002,-11.338 -5.319,0.489 -9.048,7.61 -12.004,11.338 -9.663,12.186 -20.668,23.996 -29.207,37 -2.887,4.397 -2.788,10.391 3.225,12.153 7.174,2.102 19.884,-8.108 26.985,-10.153 v 90 h -71 c -13.138,0 -27.315,1.627 -40,-2.347 -30.197,-9.462 -45.729,-43.229 -34.771,-72.653 4.448,-11.942 12.938,-22.21 23.771,-28.934 6.363,-3.95 16.1,-4.918 19.825,-12.071 3.57,-6.854 2.333,-16.514 4.33,-23.995 4.329,-16.213 14.985,-29.449 28.845,-38.644 16.063,-10.658 36.212,-14.213 55,-10.741 8.029,1.484 22.481,11.772 29.999,8.191 9.655,-4.598 15.258,-20.272 23.005,-27.767 18.601,-17.995 45.06,-28.997 70.996,-29.039 30.974,-0.05 59.61504,11.098 80.91104,34 7.482,8.048 12.659,27.081 22.104,31.817 7.481,3.751 21.234,-5.466 28.985,-7.009 16.908,-3.367 35.348,-0.981 50,8.537 13.042,8.471 23.226,20.723 27.971,35.655 2.267,7.131 1.332,16.599 5.257,22.957 4.088,6.62 13.338,6.959 19.772,10.305 10.094,5.25 18.921,14.311 23.561,24.738 12.739,28.627 -1.475,63.832 -31.561,73.996 -13.427,4.536 -28.022,3.004 -42,3.004 h -71 M 323.98301,857 c -1.906,6.449 -1.056,13.395 -2.924,20 -4.082,14.438 -16.589,21.573 -31.076,19.816 -11.82,-1.435 -13.224,-10.211 -21.495,-15.788 -4.321,-2.915 -12.716,-0.653 -17.505,-0.198 -3.238,0.308 -10.735,-1.272 -12.357,2.488 -4.081,9.459 9.786,25.357 16.361,30.192 20.127,14.802 57.662,15.264 77.996,0.701 19.932,-14.274 20.901,-38.004 21.001,-60.211 0.148,-32.934 0.999,-65.996 0.999,-99 l -31,-1 v 16 c -7.701,-6.661 -13.704,-13.943 -24,-16.711 -70.532,-18.961 -92.48,101.036 -27,116.812 7.588,1.828 15.293,2.28 23,1.17 11.846,-1.707 18.563,-7.649 28,-14.271 m 133,3 v 15 h 31 c -1.832,-23.211 -1,-46.691 -1,-70 0,-14.102 0.717,-28.081 -10.093,-38.907 -16.911,-16.934 -50.735,-18.548 -71.907,-9.629 -11.237,4.734 -23.39,18.276 -22.678,31.427 0.313,5.788 21.889,5.722 26.634,4.96 5.583,-0.896 6.904,-8.78 11.137,-12.062 9.937,-7.703 34.119,-6.181 34.414,10.211 0.184,10.217 -12.172,10.846 -19.507,11.714 -18.199,2.156 -42.44,0.887 -53.892,18.286 -14.127,21.463 -0.647,49.469 22.892,55.522 21.086,5.422 38.166,-1.69 53,-16.522 m 87,-89 c 6.47,-21.888 -17.475,-16 -32,-16 v 120 h 33 c 0,-22.525 -4.786,-51.428 2.223,-73 5.36,-16.496 24.39604,-21.662 39.77704,-18 l 1,-32 c -20.766,0 -29.908,4.125 -44.00004,19 m 92.00004,-1 v -15 h -31 v 120 h 33 c 0,-25.258 -5.508,-54.26 0.68,-79 3.129,-12.51 18.513,-20.634 30.32,-13.911 10.312,5.872 10.999,17.321 11,27.911 v 66 l 32,-1 c 0,-24.73 -4.705,-55.019 1.763,-79 3.418,-12.672 18.168,-20.866 30.236,-13.911 9.535,5.494 10.985,16.936 11.001,26.911 v 66 l 32,1 c 2.614,-8.842 1,-19.805 1,-29 0,-22.549 5.839,-56.089 -6.711,-76 -16.477,-26.142 -60.207,-25.27 -74.289,3 -11.772,-20.146 -35.308,-29.102 -57,-17.201 -5.968,3.275 -9.145,8.767 -14,13.201 m -347.00004,8.326 c 40.795,-6.815 48.303,60.583 9,66.373 -37.315,5.497 -44.559,-60.433 -9,-66.373 m 166,40.674 c 0,7.673 0.397,16.026 -3.417,22.999 -6.099,11.148 -25.762,15.939 -36.54,8.996 -8.616,-5.552 -7.72,-18.848 0.962,-23.767 11.155,-6.319 26.817,-4.36 38.995,-8.228 z"
       id="path258" />
  </g>
</svg>
